<?xml version="1.0" encoding="UTF-8"?>
<svg xmlns="http://www.w3.org/2000/svg" width="1900" height="1300" viewBox="0 0 1900 1300">
  <rect width="100%" height="100%" fill="#fff"/>
  <text x="950.0" y="36" text-anchor="middle" font-family="Times New Roman" font-size="26" font-weight="bold" fill="#1F4E79">Рисунок 8.1.1 – Модель базы данных</text>
  <rect x="40" y="90" width="210" height="162" rx="6" fill="#fff" stroke="#1E3A5F" stroke-width="2"/><rect x="41" y="91" width="208" height="28" fill="#1E3A5F"/><text x="145.0" y="110" text-anchor="middle" fill="#fff" font-family="Arial" font-size="13" font-weight="bold">users</text><rect x="320" y="90" width="210" height="126" rx="6" fill="#fff" stroke="#115E59" stroke-width="2"/><rect x="321" y="91" width="208" height="28" fill="#115E59"/><text x="425.0" y="110" text-anchor="middle" fill="#fff" font-family="Arial" font-size="13" font-weight="bold">teachers</text><rect x="620" y="90" width="210" height="144" rx="6" fill="#fff" stroke="#115E59" stroke-width="2"/><rect x="621" y="91" width="208" height="28" fill="#115E59"/><text x="725.0" y="110" text-anchor="middle" fill="#fff" font-family="Arial" font-size="13" font-weight="bold">study_groups</text><rect x="920" y="90" width="210" height="108" rx="6" fill="#fff" stroke="#115E59" stroke-width="2"/><rect x="921" y="91" width="208" height="28" fill="#115E59"/><text x="1025.0" y="110" text-anchor="middle" fill="#fff" font-family="Arial" font-size="13" font-weight="bold">classrooms</text><rect x="40" y="360" width="210" height="198" rx="6" fill="#fff" stroke="#5B21B6" stroke-width="2"/><rect x="41" y="361" width="208" height="28" fill="#5B21B6"/><text x="145.0" y="380" text-anchor="middle" fill="#fff" font-family="Arial" font-size="13" font-weight="bold">curriculum_plans</text><rect x="360" y="360" width="210" height="198" rx="6" fill="#fff" stroke="#5B21B6" stroke-width="2"/><rect x="361" y="361" width="208" height="28" fill="#5B21B6"/><text x="465.0" y="380" text-anchor="middle" fill="#fff" font-family="Arial" font-size="13" font-weight="bold">plan_disciplines</text><rect x="700" y="360" width="213" height="180" rx="6" fill="#fff" stroke="#C2410C" stroke-width="2"/><rect x="701" y="361" width="211" height="28" fill="#C2410C"/><text x="806.5" y="380" text-anchor="middle" fill="#fff" font-family="Arial" font-size="13" font-weight="bold">workload_assignments</text><rect x="40" y="720" width="210" height="198" rx="6" fill="#fff" stroke="#166534" stroke-width="2"/><rect x="41" y="721" width="208" height="28" fill="#166534"/><text x="145.0" y="740" text-anchor="middle" fill="#fff" font-family="Arial" font-size="13" font-weight="bold">schedule_slots</text><rect x="400" y="720" width="210" height="198" rx="6" fill="#fff" stroke="#166534" stroke-width="2"/><rect x="401" y="721" width="208" height="28" fill="#166534"/><text x="505.0" y="740" text-anchor="middle" fill="#fff" font-family="Arial" font-size="13" font-weight="bold">substitutions</text><rect x="1200" y="360" width="210" height="144" rx="6" fill="#fff" stroke="#7C2D12" stroke-width="2"/><rect x="1201" y="361" width="208" height="28" fill="#7C2D12"/><text x="1305.0" y="380" text-anchor="middle" fill="#fff" font-family="Arial" font-size="13" font-weight="bold">journal_documents</text><rect x="1200" y="680" width="210" height="198" rx="6" fill="#fff" stroke="#7C2D12" stroke-width="2"/><rect x="1201" y="681" width="208" height="28" fill="#7C2D12"/><text x="1305.0" y="700" text-anchor="middle" fill="#fff" font-family="Arial" font-size="13" font-weight="bold">journal_entries</text>
</svg>